<?xml version="1.0" encoding="UTF-8"?>
<svg xmlns="http://www.w3.org/2000/svg" xmlns:xlink="http://www.w3.org/1999/xlink" width="311.81pt" height="595.49pt" viewBox="0 0 311.81 595.49" version="1.1">
<defs>
<clipPath id="clip1">
  <path d="M 0 282 L 311.808594 282 L 311.808594 369 L 0 369 Z M 0 282 "/>
</clipPath>
<clipPath id="clip2">
  <path d="M 293 28 L 311.808594 28 L 311.808594 54 L 293 54 Z M 293 28 "/>
</clipPath>
<clipPath id="clip3">
  <path d="M 293 170 L 311.808594 170 L 311.808594 196 L 293 196 Z M 293 170 "/>
</clipPath>
<clipPath id="clip4">
  <path d="M 0 538 L 63 538 L 63 595.488281 L 0 595.488281 Z M 0 538 "/>
</clipPath>
<clipPath id="clip5">
  <path d="M 293 566 L 311.808594 566 L 311.808594 593 L 293 593 Z M 293 566 "/>
</clipPath>
</defs>
<g id="surface1">
<g clip-path="url(#clip1)" clip-rule="nonzero">
<path style=" stroke:none;fill-rule:nonzero;fill:rgb(93.299866%,17.298889%,25.898743%);fill-opacity:1;" d="M 0 368.71875 L 311.8125 368.71875 L 311.8125 282.449219 L 0 282.449219 Z M 0 368.71875 "/>
</g>
<path style=" stroke:none;fill-rule:nonzero;fill:rgb(13.699341%,12.199402%,12.5%);fill-opacity:1;" d="M 31.988281 2.699219 C 31.988281 9.691406 43.71875 17.460938 43.71875 25.449219 C 43.71875 25.449219 43.71875 26.222656 43.390625 27.042969 C 54.359375 29.359375 62.128906 34.8125 62.128906 41.203125 C 62.128906 49.800781 48.277344 56.90625 31.113281 56.90625 C 13.585938 56.90625 0 49.914063 0 41.535156 C 0 35.148438 8.417969 29.964844 18.574219 27.214844 C 18.574219 30.738281 30.132813 41.925781 30.410156 46.4375 C 30.445313 46.953125 30.546875 47.394531 30.410156 47.925781 C 32.910156 46.605469 32.910156 42.46875 32.910156 42.46875 C 32.910156 32.664063 21.667969 28.3125 21.667969 18.671875 C 21.667969 14.925781 23.410156 12.171875 24.980469 11.402344 L 24.980469 14.101563 C 24.980469 21.097656 37.144531 28.917969 37.144531 35.3125 L 37.144531 37.40625 C 39.96875 36.304688 39.96875 31.066406 39.96875 31.066406 C 39.96875 22.253906 28.675781 17.351563 28.675781 7.269531 C 28.675781 3.527344 30.410156 0.773438 31.988281 -0.00390625 "/>
<path style=" stroke:none;fill-rule:nonzero;fill:rgb(13.699341%,12.199402%,12.5%);fill-opacity:1;" d="M 86.777344 54.199219 C 80.863281 54.199219 76.574219 52.492188 76.574219 52.492188 L 76.574219 42.085938 L 78.039063 42.085938 C 78.796875 47.59375 82.921875 51.773438 87.644531 51.773438 C 92.367188 51.773438 95.679688 49.132813 95.679688 44.949219 C 95.679688 40.488281 91.28125 38.453125 88.351563 36.96875 L 84.117188 34.820313 C 80.101563 32.78125 76.847656 29.476563 76.847656 24.855469 C 76.847656 19.074219 81.082031 14.117188 89.164063 14.117188 C 94.699219 14.117188 99.257813 15.992188 99.257813 15.992188 L 99.257813 25.292969 L 97.792969 25.292969 C 96.925781 20.339844 94.214844 16.429688 88.675781 16.429688 C 84.550781 16.429688 82.109375 19.296875 82.109375 22.210938 C 82.109375 26.011719 84.714844 27.71875 87.753906 29.257813 L 91.988281 31.402344 C 95.839844 33.386719 100.617188 36.691406 100.617188 42.308594 C 100.617188 49.460938 95.730469 54.199219 86.777344 54.199219 "/>
<path style=" stroke:none;fill-rule:nonzero;fill:rgb(13.699341%,12.199402%,12.5%);fill-opacity:1;" d="M 111.902344 53.976563 C 108.214844 53.976563 105.824219 51.496094 105.824219 47.8125 C 105.824219 45.167969 107.726563 43.132813 111.902344 41.589844 L 119.230469 38.894531 L 119.230469 36.574219 C 119.230469 33.113281 117.65625 30.964844 115.269531 30.964844 C 113.640625 30.964844 112.011719 31.789063 111.195313 33.113281 C 110.875 33.605469 110.820313 34.324219 110.820313 34.871094 C 110.820313 35.808594 111.414063 36.90625 111.414063 36.90625 L 107.835938 38.5625 C 107.398438 37.792969 106.859375 36.636719 106.859375 35.476563 C 106.859375 35.261719 106.910156 35.039063 106.910156 34.871094 C 107.183594 32.890625 108.863281 31.570313 111.144531 30.195313 C 113.371094 28.820313 115.269531 28.429688 116.625 28.429688 C 123.464844 28.429688 124.65625 33.933594 124.65625 35.753906 L 124.65625 47.148438 C 124.65625 48.964844 124.820313 50.125 126.285156 50.125 C 126.71875 50.125 126.988281 50.125 127.589844 49.902344 L 128.890625 49.460938 L 128.890625 51.113281 L 121.289063 53.976563 C 120.152344 53.152344 119.609375 51.664063 119.394531 50.398438 C 117.601563 51.941406 114.511719 53.976563 111.902344 53.976563 M 114.128906 42.851563 C 112.988281 43.351563 110.980469 44.289063 110.980469 46.929688 C 110.980469 48.359375 111.796875 50.675781 114.617188 50.675781 C 115.976563 50.675781 117.875 49.902344 119.230469 48.800781 L 119.230469 40.652344 "/>
<path style=" stroke:none;fill-rule:nonzero;fill:rgb(13.699341%,12.199402%,12.5%);fill-opacity:1;" d="M 130.570313 53.425781 L 130.570313 52.109375 L 132.363281 51.773438 C 133.445313 51.550781 134.207031 50.730469 134.207031 49.625 L 134.207031 34.925781 C 134.207031 33.664063 133.613281 33 132.523438 33 C 132.144531 33 131.710938 33.058594 131.277344 33.222656 L 130.570313 33.496094 L 130.570313 31.84375 L 138.382813 28.429688 L 139.527344 28.429688 L 139.527344 32.507813 C 141.910156 29.804688 144.734375 28.429688 147.234375 28.429688 C 152.765625 28.429688 155.425781 32.453125 155.425781 37.128906 L 155.425781 49.625 C 155.425781 50.730469 156.238281 51.609375 157.328125 51.773438 L 159.171875 52.109375 L 159.171875 53.425781 L 146.253906 53.425781 L 146.253906 52.109375 L 148.046875 51.773438 C 149.128906 51.550781 150 50.730469 150 49.625 L 150 37.1875 C 150 35.53125 149.5625 31.84375 145.222656 31.84375 C 142.835938 31.84375 140.828125 33.335938 139.636719 34.433594 L 139.636719 49.625 C 139.636719 50.730469 140.5 51.550781 141.589844 51.773438 L 143.375 52.109375 L 143.375 53.425781 "/>
<path style=" stroke:none;fill-rule:nonzero;fill:rgb(13.699341%,12.199402%,12.5%);fill-opacity:1;" d="M 177.890625 31.789063 L 170.292969 31.789063 L 170.292969 45.445313 C 170.292969 48.472656 171.867188 50.125 174.144531 50.125 C 175.070313 50.125 176.535156 49.847656 177.890625 49.078125 L 178.492188 50.398438 L 173.601563 53.535156 C 173.601563 53.535156 172.628906 53.699219 172.140625 53.699219 C 167.417969 53.699219 164.867188 50.894531 164.867188 44.949219 L 164.867188 31.789063 L 160.90625 31.789063 L 160.90625 30.417969 C 160.90625 30.417969 166.875 28.101563 169.210938 22.429688 L 170.292969 22.429688 L 170.292969 29.421875 L 178.871094 29.421875 "/>
<path style=" stroke:none;fill-rule:nonzero;fill:rgb(13.699341%,12.199402%,12.5%);fill-opacity:1;" d="M 187.046875 53.976563 C 183.359375 53.976563 180.972656 51.496094 180.972656 47.8125 C 180.972656 45.167969 182.871094 43.132813 187.046875 41.589844 L 194.375 38.894531 L 194.375 36.574219 C 194.375 33.113281 192.800781 30.964844 190.414063 30.964844 C 188.785156 30.964844 187.152344 31.789063 186.34375 33.113281 C 186.019531 33.605469 185.964844 34.324219 185.964844 34.871094 C 185.964844 35.808594 186.5625 36.90625 186.5625 36.90625 L 182.980469 38.5625 C 182.542969 37.792969 182.003906 36.636719 182.003906 35.476563 C 182.003906 35.261719 182.058594 35.039063 182.058594 34.871094 C 182.324219 32.890625 184.011719 31.570313 186.289063 30.195313 C 188.515625 28.820313 190.414063 28.429688 191.765625 28.429688 C 198.609375 28.429688 199.804688 33.933594 199.804688 35.753906 L 199.804688 47.148438 C 199.804688 48.964844 199.96875 50.125 201.429688 50.125 C 201.863281 50.125 202.136719 50.125 202.734375 49.902344 L 204.035156 49.460938 L 204.035156 51.113281 L 196.441406 53.976563 C 195.300781 53.152344 194.757813 51.664063 194.539063 50.398438 C 192.75 51.941406 189.65625 53.976563 187.046875 53.976563 M 189.277344 42.851563 C 188.136719 43.351563 186.128906 44.289063 186.128906 46.929688 C 186.128906 48.359375 186.9375 50.675781 189.765625 50.675781 C 191.117188 50.675781 193.019531 49.902344 194.375 48.800781 L 194.375 40.652344 "/>
<path style=" stroke:none;fill-rule:nonzero;fill:rgb(13.699341%,12.199402%,12.5%);fill-opacity:1;" d="M 205.714844 53.425781 L 205.714844 52.109375 L 207.507813 51.773438 C 208.59375 51.550781 209.355469 50.730469 209.355469 49.625 L 209.355469 34.925781 C 209.355469 33.664063 208.753906 33 207.671875 33 C 207.292969 33 206.859375 33.058594 206.421875 33.222656 L 205.714844 33.496094 L 205.714844 31.84375 L 213.53125 28.429688 L 214.671875 28.429688 L 214.671875 32.507813 C 217.0625 29.804688 219.882813 28.429688 222.375 28.429688 C 227.90625 28.429688 230.570313 32.453125 230.570313 37.128906 L 230.570313 49.625 C 230.570313 50.730469 231.386719 51.609375 232.46875 51.773438 L 234.3125 52.109375 L 234.3125 53.425781 L 221.402344 53.425781 L 221.402344 52.109375 L 223.195313 51.773438 C 224.277344 51.550781 225.144531 50.730469 225.144531 49.625 L 225.144531 37.1875 C 225.144531 35.53125 224.710938 31.84375 220.367188 31.84375 C 217.980469 31.84375 215.972656 33.335938 214.777344 34.433594 L 214.777344 49.625 C 214.777344 50.730469 215.652344 51.550781 216.734375 51.773438 L 218.523438 52.109375 L 218.523438 53.425781 "/>
<path style=" stroke:none;fill-rule:nonzero;fill:rgb(13.699341%,12.199402%,12.5%);fill-opacity:1;" d="M 248.097656 53.976563 C 242.996094 53.976563 236.863281 50.125 236.863281 41.757813 C 236.863281 34.433594 242.453125 28.429688 249.945313 28.429688 C 252.441406 28.429688 254.238281 28.929688 255.535156 29.480469 L 255.535156 16.871094 C 255.535156 15.550781 254.828125 15.164063 253.960938 15.164063 C 253.472656 15.164063 252.933594 15.277344 252.441406 15.4375 L 251.355469 15.824219 L 251.355469 14.171875 L 259.824219 10.539063 L 260.964844 10.539063 L 260.964844 46.820313 C 260.964844 48.914063 261.285156 50.125 262.753906 50.125 C 263.1875 50.125 263.457031 50.125 264.054688 49.902344 L 265.355469 49.460938 L 265.355469 51.113281 L 257.761719 53.976563 C 256.570313 53.152344 255.96875 51.609375 255.699219 50.34375 C 254.285156 51.886719 251.738281 53.976563 248.097656 53.976563 M 250.539063 30.746094 C 246.636719 30.746094 242.617188 33.273438 242.617188 40.652344 C 242.617188 46.820313 245.660156 50.5625 250.433594 50.5625 C 253.308594 50.5625 255.101563 48.855469 255.535156 47.976563 L 255.535156 33.664063 C 254.828125 31.84375 252.824219 30.746094 250.539063 30.746094 "/>
<path style=" stroke:none;fill-rule:nonzero;fill:rgb(13.699341%,12.199402%,12.5%);fill-opacity:1;" d="M 273.28125 39.222656 L 273.28125 39.5 C 273.226563 46.820313 277.351563 50.507813 282.507813 50.507813 C 285.109375 50.507813 287.5 49.515625 289.398438 48.035156 L 289.398438 50.234375 C 287.226563 52.273438 283.917969 53.976563 279.847656 53.976563 C 271.382813 53.976563 267.636719 47.535156 267.636719 41.425781 C 267.636719 34.265625 273.011719 28.433594 279.953125 28.433594 C 285.652344 28.433594 290.101563 32.507813 290.101563 38.507813 L 290.101563 39.222656 Z M 284.402344 36.96875 L 284.402344 36.859375 C 284.402344 32.730469 282.128906 30.742188 279.410156 30.742188 C 276.371094 30.742188 274.09375 32.78125 273.441406 36.96875 "/>
<g clip-path="url(#clip2)" clip-rule="nonzero">
<path style=" stroke:none;fill-rule:nonzero;fill:rgb(13.699341%,12.199402%,12.5%);fill-opacity:1;" d="M 293.304688 53.425781 L 293.304688 52.109375 L 295.09375 51.773438 C 296.128906 51.550781 296.941406 50.730469 296.941406 49.625 L 296.941406 34.925781 C 296.941406 33.664063 296.34375 33 295.261719 33 C 294.878906 33 294.445313 33.058594 294.011719 33.222656 L 293.304688 33.496094 L 293.304688 31.84375 L 301.007813 28.429688 L 302.152344 28.429688 L 302.152344 33.773438 C 304.105469 29.917969 306.4375 28.324219 309.097656 28.324219 C 311.269531 28.324219 311.8125 28.875 311.8125 28.875 L 311.8125 34.710938 L 310.726563 34.710938 C 310.453125 33.167969 309.421875 32.398438 307.796875 32.398438 C 306.058594 32.398438 303.890625 32.890625 302.367188 36.082031 L 302.367188 49.625 C 302.367188 50.730469 303.453125 51.609375 304.484375 51.773438 L 307.09375 52.109375 L 307.09375 53.425781 "/>
</g>
<path style=" stroke:none;fill-rule:nonzero;fill:rgb(93.299866%,17.298889%,25.898743%);fill-opacity:1;" d="M 31.988281 144.429688 C 31.988281 151.425781 43.71875 159.195313 43.71875 167.179688 C 43.71875 167.179688 43.71875 167.953125 43.390625 168.777344 C 54.359375 171.089844 62.128906 176.546875 62.128906 182.9375 C 62.128906 191.53125 48.277344 198.640625 31.113281 198.640625 C 13.585938 198.640625 0 191.648438 0 183.265625 C 0 176.878906 8.417969 171.695313 18.574219 168.945313 C 18.574219 172.46875 30.132813 183.65625 30.410156 188.171875 C 30.445313 188.6875 30.546875 189.125 30.410156 189.65625 C 32.910156 188.335938 32.910156 184.203125 32.910156 184.203125 C 32.910156 174.398438 21.667969 170.046875 21.667969 160.40625 C 21.667969 156.65625 23.410156 153.90625 24.980469 153.136719 L 24.980469 155.832031 C 24.980469 162.828125 37.144531 170.652344 37.144531 177.042969 L 37.144531 179.136719 C 39.96875 178.035156 39.96875 172.800781 39.96875 172.800781 C 39.96875 163.984375 28.675781 159.082031 28.675781 149 C 28.675781 145.257813 30.410156 142.503906 31.988281 141.730469 "/>
<path style=" stroke:none;fill-rule:nonzero;fill:rgb(93.299866%,17.298889%,25.898743%);fill-opacity:1;" d="M 86.777344 195.929688 C 80.863281 195.929688 76.574219 194.226563 76.574219 194.226563 L 76.574219 183.816406 L 78.039063 183.816406 C 78.796875 189.320313 82.921875 193.503906 87.644531 193.503906 C 92.367188 193.503906 95.679688 190.863281 95.679688 186.679688 C 95.679688 182.222656 91.28125 180.183594 88.351563 178.699219 L 84.117188 176.550781 C 80.101563 174.515625 76.847656 171.207031 76.847656 166.585938 C 76.847656 160.804688 81.082031 155.851563 89.164063 155.851563 C 94.699219 155.851563 99.257813 157.722656 99.257813 157.722656 L 99.257813 167.023438 L 97.792969 167.023438 C 96.925781 162.070313 94.214844 158.160156 88.675781 158.160156 C 84.550781 158.160156 82.109375 161.027344 82.109375 163.945313 C 82.109375 167.742188 84.714844 169.449219 87.753906 170.992188 L 91.988281 173.136719 C 95.839844 175.121094 100.617188 178.421875 100.617188 184.039063 C 100.617188 191.195313 95.730469 195.929688 86.777344 195.929688 "/>
<path style=" stroke:none;fill-rule:nonzero;fill:rgb(93.299866%,17.298889%,25.898743%);fill-opacity:1;" d="M 111.902344 195.707031 C 108.214844 195.707031 105.824219 193.230469 105.824219 189.546875 C 105.824219 186.902344 107.726563 184.863281 111.902344 183.320313 L 119.230469 180.628906 L 119.230469 178.308594 C 119.230469 174.84375 117.65625 172.695313 115.269531 172.695313 C 113.640625 172.695313 112.011719 173.523438 111.195313 174.84375 C 110.875 175.335938 110.820313 176.058594 110.820313 176.605469 C 110.820313 177.539063 111.414063 178.640625 111.414063 178.640625 L 107.835938 180.292969 C 107.398438 179.527344 106.859375 178.367188 106.859375 177.210938 C 106.859375 176.992188 106.910156 176.773438 106.910156 176.605469 C 107.183594 174.625 108.867188 173.300781 111.144531 171.929688 C 113.371094 170.554688 115.269531 170.164063 116.625 170.164063 C 123.464844 170.164063 124.65625 175.667969 124.65625 177.484375 L 124.65625 188.882813 C 124.65625 190.695313 124.820313 191.855469 126.285156 191.855469 C 126.71875 191.855469 126.988281 191.855469 127.589844 191.636719 L 128.894531 191.195313 L 128.894531 192.847656 L 121.289063 195.707031 C 120.152344 194.886719 119.609375 193.398438 119.394531 192.132813 C 117.601563 193.675781 114.511719 195.707031 111.902344 195.707031 M 114.128906 184.585938 C 112.988281 185.085938 110.980469 186.019531 110.980469 188.660156 C 110.980469 190.09375 111.796875 192.40625 114.617188 192.40625 C 115.976563 192.40625 117.875 191.636719 119.230469 190.535156 L 119.230469 182.382813 "/>
<path style=" stroke:none;fill-rule:nonzero;fill:rgb(93.299866%,17.298889%,25.898743%);fill-opacity:1;" d="M 130.570313 195.15625 L 130.570313 193.84375 L 132.363281 193.507813 C 133.445313 193.28125 134.207031 192.460938 134.207031 191.355469 L 134.207031 176.660156 C 134.207031 175.394531 133.613281 174.734375 132.523438 174.734375 C 132.148438 174.734375 131.710938 174.789063 131.277344 174.953125 L 130.570313 175.230469 L 130.570313 173.578125 L 138.386719 170.164063 L 139.527344 170.164063 L 139.527344 174.238281 C 141.910156 171.535156 144.734375 170.164063 147.234375 170.164063 C 152.765625 170.164063 155.425781 174.183594 155.425781 178.863281 L 155.425781 191.355469 C 155.425781 192.460938 156.238281 193.34375 157.328125 193.507813 L 159.171875 193.84375 L 159.171875 195.15625 L 146.253906 195.15625 L 146.253906 193.84375 L 148.046875 193.507813 C 149.128906 193.28125 150 192.460938 150 191.355469 L 150 178.921875 C 150 177.265625 149.5625 173.578125 145.222656 173.578125 C 142.835938 173.578125 140.824219 175.066406 139.632813 176.167969 L 139.632813 191.355469 C 139.632813 192.460938 140.5 193.28125 141.585938 193.507813 L 143.378906 193.84375 L 143.378906 195.15625 "/>
<path style=" stroke:none;fill-rule:nonzero;fill:rgb(93.299866%,17.298889%,25.898743%);fill-opacity:1;" d="M 177.894531 173.523438 L 170.292969 173.523438 L 170.292969 187.179688 C 170.292969 190.207031 171.871094 191.855469 174.144531 191.855469 C 175.070313 191.855469 176.535156 191.582031 177.894531 190.8125 L 178.488281 192.132813 L 173.601563 195.269531 C 173.601563 195.269531 172.628906 195.433594 172.144531 195.433594 C 167.417969 195.433594 164.867188 192.628906 164.867188 186.679688 L 164.867188 173.523438 L 160.90625 173.523438 L 160.90625 172.152344 C 160.90625 172.152344 166.875 169.835938 169.210938 164.164063 L 170.292969 164.164063 L 170.292969 171.152344 L 178.871094 171.152344 "/>
<path style=" stroke:none;fill-rule:nonzero;fill:rgb(93.299866%,17.298889%,25.898743%);fill-opacity:1;" d="M 187.050781 195.707031 C 183.355469 195.707031 180.972656 193.230469 180.972656 189.546875 C 180.972656 186.902344 182.871094 184.863281 187.050781 183.320313 L 194.375 180.628906 L 194.375 178.308594 C 194.375 174.84375 192.804688 172.695313 190.414063 172.695313 C 188.785156 172.695313 187.152344 173.523438 186.34375 174.84375 C 186.019531 175.335938 185.960938 176.058594 185.960938 176.605469 C 185.960938 177.539063 186.566406 178.640625 186.566406 178.640625 L 182.980469 180.292969 C 182.542969 179.527344 182.003906 178.367188 182.003906 177.210938 C 182.003906 176.992188 182.058594 176.773438 182.058594 176.605469 C 182.328125 174.625 184.011719 173.300781 186.289063 171.929688 C 188.515625 170.554688 190.414063 170.164063 191.765625 170.164063 C 198.609375 170.164063 199.804688 175.667969 199.804688 177.484375 L 199.804688 188.882813 C 199.804688 190.695313 199.96875 191.855469 201.429688 191.855469 C 201.863281 191.855469 202.140625 191.855469 202.734375 191.636719 L 204.035156 191.195313 L 204.035156 192.847656 L 196.441406 195.707031 C 195.300781 194.886719 194.757813 193.398438 194.539063 192.132813 C 192.75 193.675781 189.65625 195.707031 187.050781 195.707031 M 189.273438 184.585938 C 188.136719 185.085938 186.128906 186.019531 186.128906 188.660156 C 186.128906 190.09375 186.9375 192.40625 189.765625 192.40625 C 191.121094 192.40625 193.023438 191.636719 194.375 190.535156 L 194.375 182.382813 "/>
<path style=" stroke:none;fill-rule:nonzero;fill:rgb(93.299866%,17.298889%,25.898743%);fill-opacity:1;" d="M 205.714844 195.15625 L 205.714844 193.84375 L 207.507813 193.507813 C 208.59375 193.28125 209.355469 192.460938 209.355469 191.355469 L 209.355469 176.660156 C 209.355469 175.394531 208.753906 174.734375 207.671875 174.734375 C 207.292969 174.734375 206.859375 174.789063 206.421875 174.953125 L 205.714844 175.230469 L 205.714844 173.578125 L 213.53125 170.164063 L 214.675781 170.164063 L 214.675781 174.238281 C 217.0625 171.535156 219.882813 170.164063 222.375 170.164063 C 227.910156 170.164063 230.570313 174.183594 230.570313 178.863281 L 230.570313 191.355469 C 230.570313 192.460938 231.386719 193.34375 232.472656 193.507813 L 234.3125 193.84375 L 234.3125 195.15625 L 221.402344 195.15625 L 221.402344 193.84375 L 223.195313 193.507813 C 224.277344 193.28125 225.144531 192.460938 225.144531 191.355469 L 225.144531 178.921875 C 225.144531 177.265625 224.710938 173.578125 220.367188 173.578125 C 217.980469 173.578125 215.972656 175.066406 214.777344 176.167969 L 214.777344 191.355469 C 214.777344 192.460938 215.652344 193.28125 216.730469 193.507813 L 218.523438 193.84375 L 218.523438 195.15625 "/>
<path style=" stroke:none;fill-rule:nonzero;fill:rgb(93.299866%,17.298889%,25.898743%);fill-opacity:1;" d="M 248.101563 195.707031 C 243 195.707031 236.863281 191.855469 236.863281 183.488281 C 236.863281 176.164063 242.453125 170.164063 249.945313 170.164063 C 252.441406 170.164063 254.238281 170.660156 255.535156 171.214844 L 255.535156 158.605469 C 255.535156 157.28125 254.832031 156.898438 253.960938 156.898438 C 253.472656 156.898438 252.929688 157.007813 252.441406 157.171875 L 251.355469 157.558594 L 251.355469 155.902344 L 259.828125 152.273438 L 260.964844 152.273438 L 260.964844 188.554688 C 260.964844 190.648438 261.285156 191.855469 262.753906 191.855469 C 263.1875 191.855469 263.457031 191.855469 264.054688 191.636719 L 265.359375 191.195313 L 265.359375 192.847656 L 257.761719 195.707031 C 256.570313 194.886719 255.96875 193.34375 255.699219 192.078125 C 254.285156 193.617188 251.738281 195.707031 248.101563 195.707031 M 250.539063 172.480469 C 246.636719 172.480469 242.617188 175.007813 242.617188 182.382813 C 242.617188 188.554688 245.660156 192.296875 250.433594 192.296875 C 253.3125 192.296875 255.101563 190.589844 255.535156 189.707031 L 255.535156 175.394531 C 254.832031 173.578125 252.824219 172.480469 250.539063 172.480469 "/>
<path style=" stroke:none;fill-rule:nonzero;fill:rgb(93.299866%,17.298889%,25.898743%);fill-opacity:1;" d="M 273.28125 180.957031 L 273.28125 181.230469 C 273.226563 188.554688 277.351563 192.238281 282.507813 192.238281 C 285.109375 192.238281 287.5 191.246094 289.398438 189.765625 L 289.398438 191.964844 C 287.226563 194.003906 283.917969 195.707031 279.847656 195.707031 C 271.382813 195.707031 267.636719 189.269531 267.636719 183.15625 C 267.636719 175.996094 273.011719 170.164063 279.953125 170.164063 C 285.652344 170.164063 290.105469 174.238281 290.105469 180.238281 L 290.105469 180.957031 Z M 284.40625 178.699219 L 284.40625 178.589844 C 284.40625 174.460938 282.128906 172.476563 279.410156 172.476563 C 276.371094 172.476563 274.09375 174.515625 273.441406 178.699219 "/>
<g clip-path="url(#clip3)" clip-rule="nonzero">
<path style=" stroke:none;fill-rule:nonzero;fill:rgb(93.299866%,17.298889%,25.898743%);fill-opacity:1;" d="M 293.304688 195.15625 L 293.304688 193.84375 L 295.09375 193.507813 C 296.128906 193.28125 296.941406 192.460938 296.941406 191.355469 L 296.941406 176.660156 C 296.941406 175.394531 296.34375 174.734375 295.257813 174.734375 C 294.878906 174.734375 294.445313 174.789063 294.011719 174.953125 L 293.304688 175.230469 L 293.304688 173.578125 L 301.007813 170.164063 L 302.152344 170.164063 L 302.152344 175.503906 C 304.105469 171.652344 306.441406 170.054688 309.097656 170.054688 C 311.269531 170.054688 311.8125 170.605469 311.8125 170.605469 L 311.8125 176.441406 L 310.730469 176.441406 C 310.453125 174.898438 309.421875 174.132813 307.796875 174.132813 C 306.058594 174.132813 303.890625 174.625 302.367188 177.816406 L 302.367188 191.355469 C 302.367188 192.460938 303.453125 193.34375 304.488281 193.507813 L 307.09375 193.84375 L 307.09375 195.15625 "/>
</g>
<g clip-path="url(#clip4)" clip-rule="nonzero">
<path style=" stroke:none;fill-rule:nonzero;fill:rgb(96.469116%,20.391846%,25.097656%);fill-opacity:1;" d="M 31.984375 541.28125 C 31.984375 548.277344 43.714844 556.042969 43.714844 564.03125 C 43.714844 564.03125 43.714844 564.800781 43.390625 565.625 C 54.359375 567.941406 62.128906 573.394531 62.128906 579.785156 C 62.128906 588.378906 48.277344 595.492188 31.117188 595.492188 C 13.585938 595.492188 0 588.496094 0 580.117188 C 0 573.730469 8.417969 568.546875 18.574219 565.796875 C 18.574219 569.320313 30.132813 580.503906 30.410156 585.019531 C 30.445313 585.535156 30.542969 585.972656 30.410156 586.507813 C 32.910156 585.1875 32.910156 581.050781 32.910156 581.050781 C 32.910156 571.246094 21.667969 566.894531 21.667969 557.253906 C 21.667969 553.507813 23.410156 550.757813 24.980469 549.984375 L 24.980469 552.683594 C 24.980469 559.679688 37.144531 567.5 37.144531 573.890625 L 37.144531 575.988281 C 39.972656 574.886719 39.972656 569.652344 39.972656 569.652344 C 39.972656 560.835938 28.675781 555.929688 28.675781 545.851563 C 28.675781 542.109375 30.410156 539.351563 31.984375 538.582031 "/>
</g>
<path style=" stroke:none;fill-rule:nonzero;fill:rgb(96.469116%,20.391846%,25.097656%);fill-opacity:1;" d="M 86.777344 592.78125 C 80.859375 592.78125 76.574219 591.074219 76.574219 591.074219 L 76.574219 580.667969 L 78.039063 580.667969 C 78.800781 586.171875 82.921875 590.355469 87.644531 590.355469 C 92.367188 590.355469 95.679688 587.714844 95.679688 583.53125 C 95.679688 579.070313 91.28125 577.035156 88.351563 575.546875 L 84.117188 573.402344 C 80.101563 571.363281 76.847656 568.058594 76.847656 563.433594 C 76.847656 557.65625 81.082031 552.703125 89.164063 552.703125 C 94.699219 552.703125 99.257813 554.574219 99.257813 554.574219 L 99.257813 563.875 L 97.792969 563.875 C 96.925781 558.921875 94.214844 555.011719 88.675781 555.011719 C 84.550781 555.011719 82.109375 557.875 82.109375 560.792969 C 82.109375 564.59375 84.714844 566.300781 87.753906 567.839844 L 91.988281 569.984375 C 95.839844 571.96875 100.617188 575.269531 100.617188 580.890625 C 100.617188 588.042969 95.730469 592.78125 86.777344 592.78125 "/>
<path style=" stroke:none;fill-rule:nonzero;fill:rgb(96.469116%,20.391846%,25.097656%);fill-opacity:1;" d="M 111.902344 592.558594 C 108.214844 592.558594 105.824219 590.078125 105.824219 586.394531 C 105.824219 583.753906 107.726563 581.710938 111.902344 580.167969 L 119.230469 577.476563 L 119.230469 575.160156 C 119.230469 571.695313 117.65625 569.546875 115.269531 569.546875 C 113.636719 569.546875 112.011719 570.375 111.195313 571.695313 C 110.875 572.1875 110.820313 572.90625 110.820313 573.453125 C 110.820313 574.390625 111.414063 575.488281 111.414063 575.488281 L 107.835938 577.144531 C 107.398438 576.375 106.859375 575.21875 106.859375 574.058594 C 106.859375 573.84375 106.910156 573.621094 106.910156 573.453125 C 107.183594 571.472656 108.863281 570.152344 111.144531 568.777344 C 113.367188 567.402344 115.269531 567.011719 116.625 567.011719 C 123.464844 567.011719 124.65625 572.519531 124.65625 574.335938 L 124.65625 585.734375 C 124.65625 587.546875 124.820313 588.707031 126.285156 588.707031 C 126.71875 588.707031 126.988281 588.707031 127.589844 588.484375 L 128.890625 588.042969 L 128.890625 589.695313 L 121.289063 592.558594 C 120.152344 591.738281 119.609375 590.246094 119.394531 588.980469 C 117.601563 590.523438 114.511719 592.558594 111.902344 592.558594 M 114.128906 581.4375 C 112.988281 581.933594 110.980469 582.871094 110.980469 585.511719 C 110.980469 586.941406 111.796875 589.257813 114.617188 589.257813 C 115.976563 589.257813 117.875 588.484375 119.230469 587.386719 L 119.230469 579.234375 "/>
<path style=" stroke:none;fill-rule:nonzero;fill:rgb(96.469116%,20.391846%,25.097656%);fill-opacity:1;" d="M 130.570313 592.007813 L 130.570313 590.691406 L 132.363281 590.355469 C 133.445313 590.132813 134.207031 589.3125 134.207031 588.207031 L 134.207031 573.507813 C 134.207031 572.246094 133.613281 571.582031 132.523438 571.582031 C 132.144531 571.582031 131.710938 571.640625 131.277344 571.800781 L 130.570313 572.078125 L 130.570313 570.429688 L 138.382813 567.011719 L 139.527344 567.011719 L 139.527344 571.089844 C 141.910156 568.386719 144.734375 567.011719 147.230469 567.011719 C 152.765625 567.011719 155.425781 571.03125 155.425781 575.710938 L 155.425781 588.207031 C 155.425781 589.3125 156.238281 590.191406 157.328125 590.355469 L 159.171875 590.691406 L 159.171875 592.007813 L 146.253906 592.007813 L 146.253906 590.691406 L 148.046875 590.355469 C 149.128906 590.132813 150 589.3125 150 588.207031 L 150 575.769531 C 150 574.113281 149.5625 570.429688 145.222656 570.429688 C 142.835938 570.429688 140.824219 571.917969 139.632813 573.015625 L 139.632813 588.207031 C 139.632813 589.3125 140.5 590.132813 141.589844 590.355469 L 143.375 590.691406 L 143.375 592.007813 "/>
<path style=" stroke:none;fill-rule:nonzero;fill:rgb(96.469116%,20.391846%,25.097656%);fill-opacity:1;" d="M 177.890625 570.375 L 170.292969 570.375 L 170.292969 584.027344 C 170.292969 587.054688 171.867188 588.707031 174.144531 588.707031 C 175.066406 588.707031 176.535156 588.429688 177.890625 587.660156 L 178.488281 588.980469 L 173.601563 592.117188 C 173.601563 592.117188 172.625 592.28125 172.140625 592.28125 C 167.417969 592.28125 164.867188 589.476563 164.867188 583.53125 L 164.867188 570.375 L 160.90625 570.375 L 160.90625 569 C 160.90625 569 166.871094 566.683594 169.210938 561.011719 L 170.292969 561.011719 L 170.292969 568.003906 L 178.871094 568.003906 "/>
<path style=" stroke:none;fill-rule:nonzero;fill:rgb(96.469116%,20.391846%,25.097656%);fill-opacity:1;" d="M 187.046875 592.558594 C 183.355469 592.558594 180.972656 590.078125 180.972656 586.394531 C 180.972656 583.753906 182.871094 581.710938 187.046875 580.167969 L 194.375 577.476563 L 194.375 575.160156 C 194.375 571.695313 192.800781 569.546875 190.410156 569.546875 C 188.785156 569.546875 187.15625 570.375 186.34375 571.695313 C 186.015625 572.1875 185.964844 572.90625 185.964844 573.453125 C 185.964844 574.390625 186.5625 575.488281 186.5625 575.488281 L 182.980469 577.144531 C 182.542969 576.375 182.003906 575.21875 182.003906 574.058594 C 182.003906 573.84375 182.058594 573.621094 182.058594 573.453125 C 182.324219 571.472656 184.011719 570.152344 186.289063 568.777344 C 188.515625 567.402344 190.410156 567.011719 191.769531 567.011719 C 198.609375 567.011719 199.804688 572.519531 199.804688 574.335938 L 199.804688 585.734375 C 199.804688 587.546875 199.964844 588.707031 201.429688 588.707031 C 201.863281 588.707031 202.136719 588.707031 202.730469 588.484375 L 204.035156 588.042969 L 204.035156 589.695313 L 196.4375 592.558594 C 195.300781 591.738281 194.757813 590.246094 194.539063 588.980469 C 192.746094 590.523438 189.652344 592.558594 187.046875 592.558594 M 189.273438 581.4375 C 188.136719 581.933594 186.125 582.871094 186.125 585.511719 C 186.125 586.941406 186.9375 589.257813 189.761719 589.257813 C 191.117188 589.257813 193.019531 588.484375 194.375 587.386719 L 194.375 579.234375 "/>
<path style=" stroke:none;fill-rule:nonzero;fill:rgb(96.469116%,20.391846%,25.097656%);fill-opacity:1;" d="M 205.714844 592.007813 L 205.714844 590.691406 L 207.507813 590.355469 C 208.589844 590.132813 209.351563 589.3125 209.351563 588.207031 L 209.351563 573.507813 C 209.351563 572.246094 208.753906 571.582031 207.671875 571.582031 C 207.289063 571.582031 206.855469 571.640625 206.421875 571.800781 L 205.714844 572.078125 L 205.714844 570.429688 L 213.53125 567.011719 L 214.671875 567.011719 L 214.671875 571.089844 C 217.058594 568.386719 219.878906 567.011719 222.375 567.011719 C 227.90625 567.011719 230.570313 571.03125 230.570313 575.710938 L 230.570313 588.207031 C 230.570313 589.3125 231.386719 590.191406 232.46875 590.355469 L 234.3125 590.691406 L 234.3125 592.007813 L 221.402344 592.007813 L 221.402344 590.691406 L 223.191406 590.355469 C 224.277344 590.132813 225.144531 589.3125 225.144531 588.207031 L 225.144531 575.769531 C 225.144531 574.113281 224.710938 570.429688 220.367188 570.429688 C 217.980469 570.429688 215.972656 571.917969 214.777344 573.015625 L 214.777344 588.207031 C 214.777344 589.3125 215.648438 590.132813 216.730469 590.355469 L 218.523438 590.691406 L 218.523438 592.007813 "/>
<path style=" stroke:none;fill-rule:nonzero;fill:rgb(96.469116%,20.391846%,25.097656%);fill-opacity:1;" d="M 248.097656 592.558594 C 242.996094 592.558594 236.863281 588.707031 236.863281 580.335938 C 236.863281 573.015625 242.453125 567.011719 249.945313 567.011719 C 252.441406 567.011719 254.234375 567.511719 255.535156 568.0625 L 255.535156 555.453125 C 255.535156 554.132813 254.828125 553.746094 253.960938 553.746094 C 253.472656 553.746094 252.929688 553.859375 252.441406 554.019531 L 251.355469 554.40625 L 251.355469 552.753906 L 259.824219 549.121094 L 260.964844 549.121094 L 260.964844 585.402344 C 260.964844 587.496094 261.285156 588.707031 262.753906 588.707031 C 263.1875 588.707031 263.457031 588.707031 264.054688 588.484375 L 265.355469 588.042969 L 265.355469 589.695313 L 257.761719 592.558594 C 256.566406 591.738281 255.96875 590.191406 255.699219 588.925781 C 254.285156 590.46875 251.734375 592.558594 248.097656 592.558594 M 250.539063 569.328125 C 246.636719 569.328125 242.617188 571.859375 242.617188 579.234375 C 242.617188 585.402344 245.65625 589.144531 250.433594 589.144531 C 253.308594 589.144531 255.101563 587.4375 255.535156 586.554688 L 255.535156 572.246094 C 254.828125 570.429688 252.824219 569.328125 250.539063 569.328125 "/>
<path style=" stroke:none;fill-rule:nonzero;fill:rgb(96.469116%,20.391846%,25.097656%);fill-opacity:1;" d="M 273.28125 577.804688 L 273.28125 578.078125 C 273.226563 585.402344 277.351563 589.089844 282.503906 589.089844 C 285.109375 589.089844 287.496094 588.097656 289.398438 586.617188 L 289.398438 588.8125 C 287.226563 590.855469 283.917969 592.558594 279.847656 592.558594 C 271.382813 592.558594 267.636719 586.117188 267.636719 580.007813 C 267.636719 572.847656 273.007813 567.011719 279.953125 567.011719 C 285.652344 567.011719 290.101563 571.089844 290.101563 577.089844 L 290.101563 577.804688 Z M 284.402344 575.546875 L 284.402344 575.441406 C 284.402344 571.308594 282.128906 569.324219 279.410156 569.324219 C 276.371094 569.324219 274.09375 571.363281 273.441406 575.546875 "/>
<g clip-path="url(#clip5)" clip-rule="nonzero">
<path style=" stroke:none;fill-rule:nonzero;fill:rgb(96.469116%,20.391846%,25.097656%);fill-opacity:1;" d="M 293.300781 592.007813 L 293.300781 590.691406 L 295.09375 590.355469 C 296.128906 590.132813 296.941406 589.3125 296.941406 588.207031 L 296.941406 573.507813 C 296.941406 572.246094 296.34375 571.582031 295.257813 571.582031 C 294.878906 571.582031 294.445313 571.640625 294.011719 571.800781 L 293.300781 572.078125 L 293.300781 570.429688 L 301.007813 567.011719 L 302.152344 567.011719 L 302.152344 572.355469 C 304.105469 568.5 306.4375 566.902344 309.097656 566.902344 C 311.269531 566.902344 311.8125 567.457031 311.8125 567.457031 L 311.8125 573.289063 L 310.726563 573.289063 C 310.453125 571.75 309.421875 570.980469 307.796875 570.980469 C 306.058594 570.980469 303.890625 571.472656 302.367188 574.664063 L 302.367188 588.207031 C 302.367188 589.3125 303.453125 590.191406 304.484375 590.355469 L 307.089844 590.691406 L 307.089844 592.007813 "/>
</g>
<path style=" stroke:none;fill-rule:nonzero;fill:rgb(100%,100%,100%);fill-opacity:1;" d="M 48.492188 298.339844 C 48.492188 304.402344 58.660156 311.132813 58.660156 318.054688 C 58.660156 318.054688 58.660156 318.722656 58.375 319.4375 C 67.882813 321.445313 74.613281 326.171875 74.613281 331.710938 C 74.613281 339.15625 62.613281 345.320313 47.738281 345.320313 C 32.546875 345.320313 20.773438 339.257813 20.773438 331.996094 C 20.773438 326.460938 28.066406 321.96875 36.871094 319.585938 C 36.871094 322.640625 46.886719 332.335938 47.128906 336.246094 C 47.15625 336.695313 47.242188 337.070313 47.128906 337.535156 C 49.292969 336.390625 49.292969 332.808594 49.292969 332.808594 C 49.292969 324.308594 39.550781 320.539063 39.550781 312.183594 C 39.550781 308.9375 41.058594 306.550781 42.421875 305.882813 L 42.421875 308.21875 C 42.421875 314.285156 52.960938 321.0625 52.960938 326.601563 L 52.960938 328.417969 C 55.414063 327.464844 55.414063 322.925781 55.414063 322.925781 C 55.414063 315.285156 45.621094 311.035156 45.621094 302.300781 C 45.621094 299.054688 47.128906 296.667969 48.492188 295.996094 "/>
<path style=" stroke:none;fill-rule:nonzero;fill:rgb(100%,100%,100%);fill-opacity:1;" d="M 95.976563 342.972656 C 90.851563 342.972656 87.132813 341.492188 87.132813 341.492188 L 87.132813 332.472656 L 88.40625 332.472656 C 89.0625 337.242188 92.636719 340.867188 96.726563 340.867188 C 100.820313 340.867188 103.691406 338.578125 103.691406 334.953125 C 103.691406 331.089844 99.878906 329.324219 97.339844 328.035156 L 93.671875 326.175781 C 90.191406 324.410156 87.371094 321.546875 87.371094 317.539063 C 87.371094 312.53125 91.039063 308.238281 98.046875 308.238281 C 102.84375 308.238281 106.792969 309.859375 106.792969 309.859375 L 106.792969 317.921875 L 105.523438 317.921875 C 104.773438 313.628906 102.421875 310.242188 97.621094 310.242188 C 94.046875 310.242188 91.933594 312.722656 91.933594 315.25 C 91.933594 318.539063 94.1875 320.019531 96.820313 321.359375 L 100.492188 323.214844 C 103.828125 324.9375 107.972656 327.796875 107.972656 332.664063 C 107.972656 338.867188 103.738281 342.972656 95.976563 342.972656 "/>
<path style=" stroke:none;fill-rule:nonzero;fill:rgb(100%,100%,100%);fill-opacity:1;" d="M 117.753906 342.78125 C 114.554688 342.78125 112.484375 340.632813 112.484375 337.433594 C 112.484375 335.148438 114.128906 333.378906 117.753906 332.042969 L 124.101563 329.707031 L 124.101563 327.699219 C 124.101563 324.695313 122.738281 322.835938 120.667969 322.835938 C 119.253906 322.835938 117.84375 323.550781 117.140625 324.695313 C 116.859375 325.125 116.8125 325.75 116.8125 326.222656 C 116.8125 327.03125 117.328125 327.984375 117.328125 327.984375 L 114.226563 329.421875 C 113.851563 328.753906 113.378906 327.75 113.378906 326.746094 C 113.378906 326.558594 113.421875 326.367188 113.421875 326.222656 C 113.660156 324.507813 115.121094 323.359375 117.09375 322.171875 C 119.023438 320.980469 120.667969 320.636719 121.84375 320.636719 C 127.769531 320.636719 128.804688 325.410156 128.804688 326.988281 L 128.804688 336.863281 C 128.804688 338.433594 128.945313 339.441406 130.214844 339.441406 C 130.589844 339.441406 130.828125 339.441406 131.34375 339.246094 L 132.476563 338.867188 L 132.476563 340.300781 L 125.886719 342.78125 C 124.898438 342.066406 124.429688 340.777344 124.246094 339.679688 C 122.691406 341.015625 120.011719 342.78125 117.753906 342.78125 M 119.679688 333.140625 C 118.691406 333.570313 116.949219 334.382813 116.949219 336.671875 C 116.949219 337.910156 117.660156 339.917969 120.105469 339.917969 C 121.28125 339.917969 122.925781 339.246094 124.101563 338.296875 L 124.101563 331.234375 "/>
<path style=" stroke:none;fill-rule:nonzero;fill:rgb(100%,100%,100%);fill-opacity:1;" d="M 133.929688 342.300781 L 133.929688 341.160156 L 135.484375 340.867188 C 136.421875 340.675781 137.078125 339.964844 137.078125 339.007813 L 137.078125 326.269531 C 137.078125 325.175781 136.5625 324.601563 135.621094 324.601563 C 135.296875 324.601563 134.917969 324.652344 134.542969 324.789063 L 133.929688 325.03125 L 133.929688 323.597656 L 140.699219 320.640625 L 141.6875 320.640625 L 141.6875 324.171875 C 143.757813 321.832031 146.203125 320.640625 148.367188 320.640625 C 153.164063 320.640625 155.46875 324.125 155.46875 328.179688 L 155.46875 339.007813 C 155.46875 339.964844 156.179688 340.730469 157.117188 340.867188 L 158.714844 341.160156 L 158.714844 342.300781 L 147.519531 342.300781 L 147.519531 341.160156 L 149.074219 340.867188 C 150.011719 340.675781 150.765625 339.964844 150.765625 339.007813 L 150.765625 328.230469 C 150.765625 326.792969 150.390625 323.597656 146.628906 323.597656 C 144.558594 323.597656 142.816406 324.890625 141.785156 325.839844 L 141.785156 339.007813 C 141.785156 339.964844 142.535156 340.675781 143.476563 340.867188 L 145.027344 341.160156 L 145.027344 342.300781 "/>
<path style=" stroke:none;fill-rule:nonzero;fill:rgb(100%,100%,100%);fill-opacity:1;" d="M 174.941406 323.554688 L 168.355469 323.554688 L 168.355469 335.386719 C 168.355469 338.007813 169.71875 339.441406 171.695313 339.441406 C 172.492188 339.441406 173.765625 339.199219 174.941406 338.535156 L 175.457031 339.679688 L 171.222656 342.398438 C 171.222656 342.398438 170.378906 342.539063 169.957031 342.539063 C 165.863281 342.539063 163.652344 340.109375 163.652344 334.953125 L 163.652344 323.554688 L 160.21875 323.554688 L 160.21875 322.363281 C 160.21875 322.363281 165.390625 320.355469 167.417969 315.441406 L 168.355469 315.441406 L 168.355469 321.496094 L 175.789063 321.496094 "/>
<path style=" stroke:none;fill-rule:nonzero;fill:rgb(100%,100%,100%);fill-opacity:1;" d="M 182.875 342.78125 C 179.675781 342.78125 177.609375 340.632813 177.609375 337.433594 C 177.609375 335.148438 179.257813 333.378906 182.875 332.042969 L 189.226563 329.707031 L 189.226563 327.699219 C 189.226563 324.695313 187.859375 322.835938 185.792969 322.835938 C 184.382813 322.835938 182.96875 323.550781 182.265625 324.695313 C 181.980469 325.125 181.9375 325.75 181.9375 326.222656 C 181.9375 327.03125 182.453125 327.984375 182.453125 327.984375 L 179.351563 329.421875 C 178.972656 328.753906 178.503906 327.75 178.503906 326.746094 C 178.503906 326.558594 178.550781 326.367188 178.550781 326.222656 C 178.785156 324.507813 180.242188 323.359375 182.21875 322.171875 C 184.148438 320.980469 185.792969 320.636719 186.964844 320.636719 C 192.894531 320.636719 193.929688 325.410156 193.929688 326.988281 L 193.929688 336.863281 C 193.929688 338.433594 194.070313 339.441406 195.339844 339.441406 C 195.714844 339.441406 195.953125 339.441406 196.464844 339.246094 L 197.601563 338.867188 L 197.601563 340.300781 L 191.011719 342.78125 C 190.027344 342.066406 189.5625 340.777344 189.367188 339.679688 C 187.816406 341.015625 185.136719 342.78125 182.875 342.78125 M 184.808594 333.140625 C 183.820313 333.570313 182.078125 334.382813 182.078125 336.671875 C 182.078125 337.910156 182.78125 339.917969 185.230469 339.917969 C 186.402344 339.917969 188.050781 339.246094 189.226563 338.296875 L 189.226563 331.234375 "/>
<path style=" stroke:none;fill-rule:nonzero;fill:rgb(100%,100%,100%);fill-opacity:1;" d="M 199.054688 342.300781 L 199.054688 341.160156 L 200.605469 340.867188 C 201.542969 340.675781 202.207031 339.964844 202.207031 339.007813 L 202.207031 326.269531 C 202.207031 325.175781 201.6875 324.601563 200.746094 324.601563 C 200.417969 324.601563 200.042969 324.652344 199.664063 324.789063 L 199.054688 325.03125 L 199.054688 323.597656 L 205.828125 320.640625 L 206.816406 320.640625 L 206.816406 324.171875 C 208.882813 321.832031 211.328125 320.640625 213.492188 320.640625 C 218.285156 320.640625 220.59375 324.125 220.59375 328.179688 L 220.59375 339.007813 C 220.59375 339.964844 221.300781 340.730469 222.238281 340.867188 L 223.839844 341.160156 L 223.839844 342.300781 L 212.648438 342.300781 L 212.648438 341.160156 L 214.199219 340.867188 C 215.140625 340.675781 215.890625 339.964844 215.890625 339.007813 L 215.890625 328.230469 C 215.890625 326.792969 215.515625 323.597656 211.753906 323.597656 C 209.683594 323.597656 207.941406 324.890625 206.90625 325.839844 L 206.90625 339.007813 C 206.90625 339.964844 207.664063 340.675781 208.601563 340.867188 L 210.152344 341.160156 L 210.152344 342.300781 "/>
<path style=" stroke:none;fill-rule:nonzero;fill:rgb(100%,100%,100%);fill-opacity:1;" d="M 235.785156 342.78125 C 231.363281 342.78125 226.050781 339.441406 226.050781 332.1875 C 226.050781 325.84375 230.894531 320.636719 237.382813 320.636719 C 239.546875 320.636719 241.101563 321.070313 242.226563 321.550781 L 242.226563 310.625 C 242.226563 309.476563 241.617188 309.144531 240.867188 309.144531 C 240.441406 309.144531 239.972656 309.238281 239.546875 309.382813 L 238.609375 309.71875 L 238.609375 308.28125 L 245.945313 305.136719 L 246.929688 305.136719 L 246.929688 336.574219 C 246.929688 338.394531 247.214844 339.441406 248.484375 339.441406 C 248.859375 339.441406 249.09375 339.441406 249.609375 339.246094 L 250.738281 338.867188 L 250.738281 340.300781 L 244.15625 342.78125 C 243.121094 342.066406 242.605469 340.730469 242.371094 339.632813 C 241.144531 340.96875 238.9375 342.78125 235.785156 342.78125 M 237.898438 322.648438 C 234.515625 322.648438 231.03125 324.839844 231.03125 331.234375 C 231.03125 336.574219 233.667969 339.820313 237.808594 339.820313 C 240.300781 339.820313 241.851563 338.339844 242.226563 337.578125 L 242.226563 325.175781 C 241.617188 323.597656 239.878906 322.648438 237.898438 322.648438 "/>
<path style=" stroke:none;fill-rule:nonzero;fill:rgb(100%,100%,100%);fill-opacity:1;" d="M 257.605469 329.992188 L 257.605469 330.234375 C 257.558594 336.574219 261.132813 339.773438 265.601563 339.773438 C 267.855469 339.773438 269.929688 338.914063 271.574219 337.628906 L 271.574219 339.535156 C 269.691406 341.300781 266.828125 342.78125 263.300781 342.78125 C 255.960938 342.78125 252.71875 337.195313 252.71875 331.902344 C 252.71875 325.695313 257.371094 320.636719 263.390625 320.636719 C 268.328125 320.636719 272.1875 324.175781 272.1875 329.375 L 272.1875 329.992188 Z M 267.246094 328.035156 L 267.246094 327.945313 C 267.246094 324.363281 265.273438 322.640625 262.921875 322.640625 C 260.285156 322.640625 258.308594 324.410156 257.746094 328.035156 "/>
<path style=" stroke:none;fill-rule:nonzero;fill:rgb(100%,100%,100%);fill-opacity:1;" d="M 274.960938 342.300781 L 274.960938 341.160156 L 276.511719 340.867188 C 277.410156 340.675781 278.109375 339.964844 278.109375 339.007813 L 278.109375 326.269531 C 278.109375 325.175781 277.59375 324.601563 276.65625 324.601563 C 276.328125 324.601563 275.945313 324.652344 275.574219 324.789063 L 274.960938 325.03125 L 274.960938 323.597656 L 281.636719 320.640625 L 282.628906 320.640625 L 282.628906 325.269531 C 284.320313 321.929688 286.34375 320.546875 288.644531 320.546875 C 290.527344 320.546875 290.996094 321.023438 290.996094 321.023438 L 290.996094 326.078125 L 290.0625 326.078125 C 289.824219 324.746094 288.929688 324.078125 287.519531 324.078125 C 286.011719 324.078125 284.132813 324.507813 282.8125 327.273438 L 282.8125 339.007813 C 282.8125 339.964844 283.753906 340.730469 284.648438 340.867188 L 286.910156 341.160156 L 286.910156 342.300781 "/>
</g>
</svg>
