<svg id="visual" viewBox="0 0 1920 550" width="1920" height="550" xmlns="http://www.w3.org/2000/svg" xmlns:xlink="http://www.w3.org/1999/xlink" version="1.1"><rect x="0" y="0" width="1920" height="550" fill="#FFFFFF"></rect><path d="M0 116L22.8 128.5C45.7 141 91.3 166 137 159.3C182.7 152.7 228.3 114.3 274 89.8C319.7 65.3 365.3 54.7 411.2 49C457 43.3 503 42.7 548.8 55.7C594.7 68.7 640.3 95.3 686 112.2C731.7 129 777.3 136 823 128.3C868.7 120.7 914.3 98.3 960 106.3C1005.7 114.3 1051.3 152.7 1097 169.5C1142.7 186.3 1188.3 181.7 1234 161.7C1279.7 141.7 1325.3 106.3 1371.2 90.8C1417 75.3 1463 79.7 1508.8 82C1554.7 84.3 1600.3 84.7 1646 90.8C1691.7 97 1737.3 109 1783 119.2C1828.7 129.3 1874.3 137.7 1897.2 141.8L1920 146L1920 551L1897.2 551C1874.3 551 1828.7 551 1783 551C1737.3 551 1691.7 551 1646 551C1600.3 551 1554.7 551 1508.8 551C1463 551 1417 551 1371.2 551C1325.3 551 1279.7 551 1234 551C1188.3 551 1142.7 551 1097 551C1051.3 551 1005.7 551 960 551C914.3 551 868.7 551 823 551C777.3 551 731.7 551 686 551C640.3 551 594.7 551 548.8 551C503 551 457 551 411.2 551C365.3 551 319.7 551 274 551C228.3 551 182.7 551 137 551C91.3 551 45.7 551 22.8 551L0 551Z" fill="#606060"></path><path d="M0 141L22.8 145.8C45.7 150.7 91.3 160.3 137 174.3C182.7 188.3 228.3 206.7 274 217.8C319.7 229 365.3 233 411.2 219.7C457 206.3 503 175.7 548.8 171.8C594.7 168 640.3 191 686 201C731.7 211 777.3 208 823 210.5C868.7 213 914.3 221 960 228.2C1005.7 235.3 1051.3 241.7 1097 232.8C1142.7 224 1188.3 200 1234 189C1279.7 178 1325.3 180 1371.2 183.8C1417 187.7 1463 193.3 1508.8 188.2C1554.7 183 1600.3 167 1646 171.8C1691.7 176.7 1737.3 202.3 1783 206.2C1828.7 210 1874.3 192 1897.2 183L1920 174L1920 551L1897.2 551C1874.3 551 1828.7 551 1783 551C1737.3 551 1691.7 551 1646 551C1600.3 551 1554.7 551 1508.8 551C1463 551 1417 551 1371.2 551C1325.3 551 1279.7 551 1234 551C1188.3 551 1142.7 551 1097 551C1051.3 551 1005.7 551 960 551C914.3 551 868.7 551 823 551C777.3 551 731.7 551 686 551C640.3 551 594.7 551 548.8 551C503 551 457 551 411.2 551C365.3 551 319.7 551 274 551C228.3 551 182.7 551 137 551C91.3 551 45.7 551 22.8 551L0 551Z" fill="#4a4a4a"></path><path d="M0 250L22.8 253.3C45.7 256.7 91.3 263.3 137 273.5C182.7 283.7 228.3 297.3 274 309.8C319.7 322.3 365.3 333.7 411.2 337.7C457 341.7 503 338.3 548.8 327.3C594.7 316.3 640.3 297.7 686 283.7C731.7 269.7 777.3 260.3 823 270C868.7 279.7 914.3 308.3 960 321.3C1005.7 334.3 1051.3 331.7 1097 333.5C1142.7 335.3 1188.3 341.7 1234 328.3C1279.7 315 1325.3 282 1371.2 276.2C1417 270.3 1463 291.7 1508.8 290.8C1554.7 290 1600.3 267 1646 265.7C1691.7 264.3 1737.3 284.7 1783 296.3C1828.7 308 1874.3 311 1897.2 312.5L1920 314L1920 551L1897.2 551C1874.3 551 1828.7 551 1783 551C1737.3 551 1691.7 551 1646 551C1600.3 551 1554.7 551 1508.8 551C1463 551 1417 551 1371.2 551C1325.3 551 1279.7 551 1234 551C1188.3 551 1142.7 551 1097 551C1051.3 551 1005.7 551 960 551C914.3 551 868.7 551 823 551C777.3 551 731.7 551 686 551C640.3 551 594.7 551 548.8 551C503 551 457 551 411.2 551C365.3 551 319.7 551 274 551C228.3 551 182.7 551 137 551C91.3 551 45.7 551 22.8 551L0 551Z" fill="#353535"></path><path d="M0 370L22.8 368.3C45.7 366.7 91.3 363.3 137 369.2C182.7 375 228.3 390 274 382.3C319.7 374.7 365.3 344.3 411.2 350C457 355.7 503 397.3 548.8 398C594.7 398.7 640.3 358.3 686 353C731.7 347.7 777.3 377.3 823 394.5C868.7 411.7 914.3 416.3 960 403.5C1005.7 390.7 1051.3 360.3 1097 362C1142.7 363.7 1188.3 397.3 1234 410.2C1279.7 423 1325.3 415 1371.2 402.7C1417 390.3 1463 373.7 1508.8 366C1554.7 358.3 1600.3 359.7 1646 371.3C1691.7 383 1737.3 405 1783 412C1828.7 419 1874.3 411 1897.2 407L1920 403L1920 551L1897.2 551C1874.3 551 1828.7 551 1783 551C1737.3 551 1691.7 551 1646 551C1600.3 551 1554.7 551 1508.8 551C1463 551 1417 551 1371.2 551C1325.3 551 1279.7 551 1234 551C1188.3 551 1142.7 551 1097 551C1051.3 551 1005.7 551 960 551C914.3 551 868.7 551 823 551C777.3 551 731.7 551 686 551C640.3 551 594.7 551 548.8 551C503 551 457 551 411.2 551C365.3 551 319.7 551 274 551C228.3 551 182.7 551 137 551C91.3 551 45.7 551 22.8 551L0 551Z" fill="#212121"></path><path d="M0 486L22.8 483C45.7 480 91.3 474 137 473.7C182.7 473.3 228.3 478.7 274 485.7C319.7 492.7 365.3 501.3 411.2 496.3C457 491.3 503 472.7 548.8 468.8C594.7 465 640.3 476 686 468.3C731.7 460.7 777.3 434.3 823 426.3C868.7 418.3 914.3 428.7 960 427.2C1005.7 425.7 1051.3 412.3 1097 406.8C1142.7 401.3 1188.3 403.7 1234 409.2C1279.7 414.7 1325.3 423.3 1371.2 424.7C1417 426 1463 420 1508.8 423.2C1554.7 426.3 1600.3 438.7 1646 454.3C1691.7 470 1737.3 489 1783 488.5C1828.7 488 1874.3 468 1897.2 458L1920 448L1920 551L1897.2 551C1874.3 551 1828.7 551 1783 551C1737.3 551 1691.7 551 1646 551C1600.3 551 1554.7 551 1508.8 551C1463 551 1417 551 1371.2 551C1325.3 551 1279.7 551 1234 551C1188.3 551 1142.7 551 1097 551C1051.3 551 1005.7 551 960 551C914.3 551 868.7 551 823 551C777.3 551 731.7 551 686 551C640.3 551 594.7 551 548.8 551C503 551 457 551 411.2 551C365.3 551 319.7 551 274 551C228.3 551 182.7 551 137 551C91.3 551 45.7 551 22.8 551L0 551Z" fill="#0c0c0c"></path></svg>